{
  "asset": {
    "generator": "UnityGltf 2.17.1, Unity 6000.0.44f1, URP",
    "version": "2.0"
  },
  "extensionsUsed": [
    "KHR_materials_pbrSpecularGlossiness",
    "KHR_texture_transform"
  ],
  "scene": 0,
  "scenes": [
    {
      "nodes": [
        0
      ],
      "name": "pf_build_barracks_single_01"
    }
  ],
  "accessors": [
    {
      "bufferView": 0,
      "componentType": 5126,
      "count": 33104,
      "type": "VEC3",
      "max": [
        5.1289901733398438,
        10.275078773498535,
        4.2439379692077637
      ],
      "min": [
        -4.7680387496948242,
        -0.062137451022863388,
        -3.8177604675292969
      ]
    },
    {
      "bufferView": 1,
      "componentType": 5126,
      "count": 33104,
      "type": "VEC3",
      "max": [
        1.0,
        1.0,
        1.0
      ],
      "min": [
        -1.0,
        -1.0,
        -1.0
      ]
    },
    {
      "bufferView": 2,
      "componentType": 5126,
      "count": 33104,
      "type": "VEC4",
      "max": [
        1.0,
        1.0,
        1.0,
        1.0
      ],
      "min": [
        -1.0,
        -1.0,
        -1.0,
        -1.0
      ]
    },
    {
      "bufferView": 3,
      "componentType": 5126,
      "count": 33104,
      "type": "VEC2",
      "max": [
        0.99752360582351685,
        0.99947220087051392
      ],
      "min": [
        0.00018398987594991922,
        0.0010000467300415039
      ]
    },
    {
      "bufferView": 4,
      "componentType": 5126,
      "count": 33104,
      "type": "VEC2",
      "max": [
        0.99800801277160645,
        0.9980093240737915
      ],
      "min": [
        0.0019920377526432276,
        0.0026849508285522461
      ]
    },
    {
      "bufferView": 5,
      "componentType": 5126,
      "count": 33104,
      "type": "VEC4",
      "max": [
        1.0,
        1.0,
        1.0,
        1.0
      ],
      "min": [
        1.0,
        1.0,
        1.0,
        1.0
      ]
    },
    {
      "bufferView": 6,
      "componentType": 5123,
      "count": 67662,
      "type": "SCALAR",
      "max": [
        14563.0
      ],
      "min": [
        0.0
      ]
    },
    {
      "bufferView": 7,
      "componentType": 5123,
      "count": 87645,
      "type": "SCALAR",
      "max": [
        33103.0
      ],
      "min": [
        14564.0
      ]
    }
  ],
  "buffers": [
    {
      "uri": "pf_build_barracks_single_01.bin",
      "byteLength": 2694104
    }
  ],
  "bufferViews": [
    {
      "buffer": 0,
      "byteLength": 397248,
      "byteStride": 12,
      "target": 34962
    },
    {
      "buffer": 0,
      "byteOffset": 397248,
      "byteLength": 397248,
      "byteStride": 12,
      "target": 34962
    },
    {
      "buffer": 0,
      "byteOffset": 794496,
      "byteLength": 529664,
      "target": 34962
    },
    {
      "buffer": 0,
      "byteOffset": 1324160,
      "byteLength": 264832,
      "target": 34962
    },
    {
      "buffer": 0,
      "byteOffset": 1588992,
      "byteLength": 264832,
      "target": 34962
    },
    {
      "buffer": 0,
      "byteOffset": 1853824,
      "byteLength": 529664,
      "target": 34962
    },
    {
      "buffer": 0,
      "byteOffset": 2383488,
      "byteLength": 135324,
      "target": 34963
    },
    {
      "buffer": 0,
      "byteOffset": 2518812,
      "byteLength": 175292,
      "target": 34963
    }
  ],
  "images": [
    {
      "uri": "build_building_01_a.jpg",
      "name": "build_building_01_a"
    },
    {
      "uri": "build_building_01_sg.jpg",
      "name": "build_building_01_sg"
    },
    {
      "uri": "build_building_01_o.jpg",
      "name": "build_building_01_o"
    },
    {
      "uri": "build_building_02_a.png",
      "name": "build_building_02_a"
    },
    {
      "uri": "build_building_02_sg.jpg",
      "name": "build_building_02_sg"
    },
    {
      "uri": "build_building_02_o.jpg",
      "name": "build_building_02_o"
    }
  ],
  "materials": [
    {
      "occlusionTexture": {
        "strength": 0.10000000149011612,
        "index": 2,
        "extensions": {
          "KHR_texture_transform": {
            "texCoord": 0
          }
        }
      },
      "name": "mat_building_01",
      "extensions": {
        "KHR_materials_pbrSpecularGlossiness": {
          "diffuseFactor": [
            0.725425839,
            0.725425839,
            0.725425839,
            1.0
          ],
          "diffuseTexture": {
            "index": 0
          },
          "specularFactor": [
            1.0,
            1.0,
            1.0
          ],
          "glossinessFactor": 1.0,
          "specularGlossinessTexture": {
            "index": 1
          }
        }
      }
    },
    {
      "occlusionTexture": {
        "strength": 0.05000000074505806,
        "index": 5,
        "extensions": {
          "KHR_texture_transform": {
            "texCoord": 0
          }
        }
      },
      "name": "mat_building_02",
      "extensions": {
        "KHR_materials_pbrSpecularGlossiness": {
          "diffuseFactor": [
            0.707756639,
            0.707756639,
            0.707756639,
            1.0
          ],
          "diffuseTexture": {
            "index": 3
          },
          "specularFactor": [
            1.0,
            1.0,
            1.0
          ],
          "glossinessFactor": 1.0,
          "specularGlossinessTexture": {
            "index": 4
          }
        }
      }
    }
  ],
  "meshes": [
    {
      "primitives": [
        {
          "attributes": {
            "POSITION": 0,
            "NORMAL": 1,
            "TANGENT": 2,
            "TEXCOORD_0": 3,
            "TEXCOORD_1": 4,
            "COLOR_0": 5
          },
          "indices": 6,
          "material": 0
        },
        {
          "attributes": {
            "POSITION": 0,
            "NORMAL": 1,
            "TANGENT": 2,
            "TEXCOORD_0": 3,
            "TEXCOORD_1": 4,
            "COLOR_0": 5
          },
          "indices": 7,
          "material": 1
        }
      ],
      "name": "pf_build_barracks_single_01"
    }
  ],
  "nodes": [
    {
      "children": [
        1,
        2,
        3
      ],
      "mesh": 0,
      "rotation": [
        0.0,
        0.4855074,
        0.0,
        0.8742326
      ],
      "scale": [
        1.00000012,
        1.0,
        1.00000012
      ],
      "name": "pf_build_barracks_single_01"
    },
    {
      "translation": [
        0.180450439,
        5.10644674,
        0.213089466
      ],
      "name": "collider1"
    },
    {
      "rotation": [
        0.262569278,
        0.0,
        0.0,
        0.9649132
      ],
      "translation": [
        0.25093,
        7.9939,
        1.3107
      ],
      "name": "collider2"
    },
    {
      "rotation": [
        -0.26319766,
        0.0,
        0.0,
        0.964742
      ],
      "translation": [
        0.25093,
        7.9938,
        -0.86123
      ],
      "name": "collider3"
    }
  ],
  "samplers": [
    {
      "minFilter": 9987
    }
  ],
  "textures": [
    {
      "sampler": 0,
      "source": 0,
      "name": "build_building_01_a"
    },
    {
      "sampler": 0,
      "source": 1,
      "name": "build_building_01_sg"
    },
    {
      "sampler": 0,
      "source": 2,
      "name": "build_building_01_o"
    },
    {
      "sampler": 0,
      "source": 3,
      "name": "build_building_02_a"
    },
    {
      "sampler": 0,
      "source": 4,
      "name": "build_building_02_sg"
    },
    {
      "sampler": 0,
      "source": 5,
      "name": "build_building_02_o"
    }
  ]
}