{
  "asset": {
    "generator": "UnityGLTF",
    "version": "2.0"
  },
  "extensionsUsed": [
    "KHR_texture_transform",
    "KHR_materials_pbrSpecularGlossiness"
  ],
  "scene": 0,
  "scenes": [
    {
      "nodes": [
        0
      ],
      "name": "Terrain"
    }
  ],
  "accessors": [
    {
      "bufferView": 0,
      "componentType": 5126,
      "count": 7063,
      "type": "VEC3",
      "max": [
        6.7536312547304618E-17,
        110.44135284423828,
        485.7484130859375
      ],
      "min": [
        -500.05081176757813,
        -6.5967798233032227,
        8.9490750354299757E-15
      ]
    },
    {
      "bufferView": 1,
      "componentType": 5126,
      "count": 7063,
      "type": "VEC3",
      "max": [
        1.0,
        0.99999988079071045,
        0.97015058994293213
      ],
      "min": [
        -0.9455798864364624,
        0.0,
        -0.93296504020690918
      ]
    },
    {
      "bufferView": 2,
      "componentType": 5126,
      "count": 7063,
      "type": "VEC4",
      "max": [
        1.0,
        1.0,
        0.5674934983253479,
        1.0
      ],
      "min": [
        0.0,
        -0.90355980396270752,
        -0.46076381206512451,
        1.0
      ]
    },
    {
      "bufferView": 3,
      "componentType": 5126,
      "count": 7063,
      "type": "VEC2",
      "max": [
        1.0000001192092896,
        0.97139662504196167
      ],
      "min": [
        1.5497207641601563E-06,
        -1.1920928955078125E-07
      ]
    },
    {
      "bufferView": 4,
      "componentType": 5126,
      "count": 7063,
      "type": "VEC2",
      "max": [
        1.0,
        0.97139674425125122
      ],
      "min": [
        1.6093254089355469E-06,
        2.384185791015625E-07
      ]
    },
    {
      "bufferView": 5,
      "componentType": 5123,
      "count": 41115,
      "type": "SCALAR",
      "max": [
        7062.0
      ],
      "min": [
        0.0
      ]
    },
    {
      "bufferView": 6,
      "componentType": 5126,
      "count": 6699,
      "type": "VEC3",
      "max": [
        -169.30880737304688,
        10.069159507751465,
        474.49752807617188
      ],
      "min": [
        -356.33596801757813,
        -2.2278835773468018,
        344.52371215820313
      ]
    },
    {
      "bufferView": 7,
      "componentType": 5126,
      "count": 6699,
      "type": "VEC3",
      "max": [
        0.9933580756187439,
        1.0,
        0.89189738035202026
      ],
      "min": [
        -0.93359231948852539,
        0.11087887734174728,
        -0.88932758569717407
      ]
    },
    {
      "bufferView": 8,
      "componentType": 5126,
      "count": 6699,
      "type": "VEC4",
      "max": [
        1.0,
        0.93453055620193481,
        0.99538940191268921,
        1.0
      ],
      "min": [
        0.015222593210637569,
        -0.993807852268219,
        -0.44888478517532349,
        -1.0
      ]
    },
    {
      "bufferView": 9,
      "componentType": 5126,
      "count": 6699,
      "type": "VEC2",
      "max": [
        0.66141736507415771,
        0.948897123336792
      ],
      "min": [
        0.28740161657333374,
        0.68897628784179688
      ]
    },
    {
      "bufferView": 10,
      "componentType": 5126,
      "count": 6699,
      "type": "VEC2",
      "max": [
        0.69425255060195923,
        0.99900197982788086
      ],
      "min": [
        0.0006936192512512207,
        0.00099813938140869141
      ]
    },
    {
      "bufferView": 11,
      "componentType": 5123,
      "count": 24795,
      "type": "SCALAR",
      "max": [
        4259.0
      ],
      "min": [
        0.0
      ]
    },
    {
      "bufferView": 12,
      "componentType": 5123,
      "count": 14625,
      "type": "SCALAR",
      "max": [
        6698.0
      ],
      "min": [
        0.0
      ]
    }
  ],
  "buffers": [
    {
      "uri": "Terrain.bin",
      "byteLength": 931748
    }
  ],
  "bufferViews": [
    {
      "buffer": 0,
      "byteLength": 84756,
      "byteStride": 12,
      "target": 34962
    },
    {
      "buffer": 0,
      "byteOffset": 84756,
      "byteLength": 84756,
      "byteStride": 12,
      "target": 34962
    },
    {
      "buffer": 0,
      "byteOffset": 169512,
      "byteLength": 113008,
      "target": 34962
    },
    {
      "buffer": 0,
      "byteOffset": 282520,
      "byteLength": 56504,
      "target": 34962
    },
    {
      "buffer": 0,
      "byteOffset": 339024,
      "byteLength": 56504,
      "target": 34962
    },
    {
      "buffer": 0,
      "byteOffset": 395528,
      "byteLength": 82232,
      "target": 34963
    },
    {
      "buffer": 0,
      "byteOffset": 477760,
      "byteLength": 80388,
      "byteStride": 12,
      "target": 34962
    },
    {
      "buffer": 0,
      "byteOffset": 558148,
      "byteLength": 80388,
      "byteStride": 12,
      "target": 34962
    },
    {
      "buffer": 0,
      "byteOffset": 638536,
      "byteLength": 107184,
      "target": 34962
    },
    {
      "buffer": 0,
      "byteOffset": 745720,
      "byteLength": 53592,
      "target": 34962
    },
    {
      "buffer": 0,
      "byteOffset": 799312,
      "byteLength": 53592,
      "target": 34962
    },
    {
      "buffer": 0,
      "byteOffset": 852904,
      "byteLength": 49592,
      "target": 34963
    },
    {
      "buffer": 0,
      "byteOffset": 902496,
      "byteLength": 29252,
      "target": 34963
    }
  ],
  "images": [
    {
      "uri": "terrain_01_n.jpg",
      "name": "terrain_01_n"
    },
    {
      "uri": "terrain_01_o.jpg",
      "name": "terrain_01_o"
    },
    {
      "uri": "terrain_far_01_a2.jpg",
      "name": "terrain_far_01_a2"
    },
    {
      "uri": "terrain_far_01_sg.jpg",
      "name": "terrain_far_01_sg"
    }
  ],
  "materials": [
    {
      "normalTexture": {
        "index": 0,
        "extensions": {
          "KHR_texture_transform": {
            "texCoord": 0
          }
        }
      },
      "occlusionTexture": {
        "strength": 0.718999981880188,
        "index": 1,
        "extensions": {
          "KHR_texture_transform": {
            "texCoord": 0
          }
        }
      },
      "name": "mat_terrain_far_01",
      "extensions": {
        "KHR_materials_pbrSpecularGlossiness": {
          "diffuseFactor": [
            0.5299,
            0.5299,
            0.5299,
            1.0
          ],
          "diffuseTexture": {
            "index": 2
          },
          "specularFactor": [
            1.0,
            1.0,
            1.0
          ],
          "glossinessFactor": 1.0,
          "specularGlossinessTexture": {
            "index": 3
          }
        }
      }
    },
    {
      "alphaMode": "MASK",
      "name": "mat_terrain_near_01"
    },
    {
      "alphaMode": "MASK",
      "name": "mat_terrain_near_02"
    }
  ],
  "meshes": [
    {
      "primitives": [
        {
          "attributes": {
            "POSITION": 0,
            "NORMAL": 1,
            "TANGENT": 2,
            "TEXCOORD_0": 3,
            "TEXCOORD_1": 4
          },
          "indices": 5,
          "material": 0
        }
      ],
      "name": "terrain_far_01"
    },
    {
      "primitives": [
        {
          "attributes": {
            "POSITION": 6,
            "NORMAL": 7,
            "TANGENT": 8,
            "TEXCOORD_0": 9,
            "TEXCOORD_1": 10
          },
          "indices": 11,
          "material": 1
        },
        {
          "attributes": {
            "POSITION": 6,
            "NORMAL": 7,
            "TANGENT": 8,
            "TEXCOORD_0": 9,
            "TEXCOORD_1": 10
          },
          "indices": 12,
          "material": 2
        }
      ],
      "name": "terrain_near_01"
    }
  ],
  "nodes": [
    {
      "children": [
        1,
        3,
        5
      ],
      "translation": [
        -6.7292,
        17.649,
        -35.163
      ],
      "name": "Terrain"
    },
    {
      "children": [
        2
      ],
      "rotation": [
        1.42044854E-07,
        -0.6596302,
        4.47034836E-08,
        0.751590431
      ],
      "scale": [
        0.919999957,
        0.92,
        0.92
      ],
      "translation": [
        622.11,
        -31.7,
        408.305847
      ],
      "name": "terrain_01"
    },
    {
      "mesh": 0,
      "rotation": [
        -0.00032785238,
        0.000962883467,
        0.002497423,
        0.999996364
      ],
      "name": "terrain_far_01"
    },
    {
      "children": [
        4
      ],
      "rotation": [
        1.42606007E-08,
        0.8359626,
        1.10390994E-08,
        0.5487865
      ],
      "scale": [
        0.6941999,
        0.5,
        0.694200039
      ],
      "translation": [
        -466.7,
        -23.0,
        118.8
      ],
      "name": "terrain_01"
    },
    {
      "mesh": 0,
      "rotation": [
        -0.000544987444,
        0.0009628828,
        -0.00245918659,
        0.999996364
      ],
      "translation": [
        -2.01167859E-06,
        7.789245E-14,
        4.46630054E-07
      ],
      "name": "terrain_far_01"
    },
    {
      "children": [
        6,
        7
      ],
      "translation": [
        292.81,
        -17.64926,
        -361.06
      ],
      "name": "terrain_01"
    },
    {
      "mesh": 0,
      "name": "terrain_far_01"
    },
    {
      "mesh": 1,
      "name": "terrain_near_01"
    }
  ],
  "samplers": [
    {
      "minFilter": 9987
    }
  ],
  "textures": [
    {
      "sampler": 0,
      "source": 0,
      "name": "terrain_01_n"
    },
    {
      "sampler": 0,
      "source": 1,
      "name": "terrain_01_o"
    },
    {
      "sampler": 0,
      "source": 2,
      "name": "terrain_far_01_a2"
    },
    {
      "sampler": 0,
      "source": 3,
      "name": "terrain_far_01_sg"
    }
  ]
}