{
	"asset":{
		"generator":"Khronos glTF Blender I/O v4.4.56",
		"version":"2.0"
	},
	"extensionsUsed":[
		"KHR_materials_specular",
		"KHR_materials_ior",
		"KHR_texture_transform"
	],
	"extensionsRequired":[
		"KHR_texture_transform"
	],
	"scene":0,
	"scenes":[
		{
			"name":"Scene",
			"nodes":[
				0,
				1,
				2,
				3,
				4
			]
		}
	],
	"nodes":[
		{
			"mesh":0,
			"name":"terrain_far_01",
			"rotation":[
				-0.0018936449196189642,
				-0.6589041352272034,
				0.001660822657868266,
				0.7522227168083191
			],
			"scale":[
				0.9200002551078796,
				0.9199999570846558,
				0.9200003147125244
			],
			"translation":[
				596.986572265625,
				-14.051000595092773,
				405.6328430175781
			]
		},
		{
			"mesh":0,
			"name":"terrain_far_01.001",
			"rotation":[
				-0.0022871342953294516,
				0.8364859819412231,
				-0.0014578797854483128,
				0.5479815602302551
			],
			"scale":[
				0.6941959857940674,
				0.500005841255188,
				0.6941999793052673
			],
			"translation":[
				-473.42919921875,
				-5.35099983215332,
				83.63700866699219
			]
		},
		{
			"mesh":0,
			"name":"terrain_far_01.002",
			"translation":[
				286.080810546875,
				-0.0002593994140625,
				-396.2229919433594
			]
		},
		{
			"mesh":1,
			"name":"terrain_near_01",
			"translation":[
				286.080810546875,
				-0.0002593994140625,
				-396.2229919433594
			]
		},
		{
			"mesh":2,
			"name":"Baseplate",
			"scale":[
				100,
				1,
				100
			],
			"translation":[
				0,
				-1.7000000476837158,
				100
			]
		}
	],
	"materials":[
		{
			"extensions":{
				"KHR_materials_specular":{
					"specularFactor":0,
					"specularColorTexture":{
						"index":0
					}
				},
				"KHR_materials_ior":{
					"ior":1000
				}
			},
			"name":"mat_terrain_far_01.001",
			"normalTexture":{
				"index":1
			},
			"occlusionTexture":{
				"index":2,
				"strength":0.718999981880188
			},
			"pbrMetallicRoughness":{
				"baseColorFactor":[
					0.5299000144004822,
					0.5299000144004822,
					0.5299000144004822,
					1
				],
				"baseColorTexture":{
					"index":3
				},
				"metallicFactor":0
			}
		},
		{
			"name":"mat_terrain_near_01.001"
		},
		{
			"name":"mat_terrain_near_02.001"
		},
		{
			"name":"baseplate.001",
			"pbrMetallicRoughness":{
				"baseColorFactor":[
					0.9786729216575623,
					0.8776296377182007,
					0.6534194946289062,
					1
				],
				"baseColorTexture":{
					"extensions":{
						"KHR_texture_transform":{
							"offset":[
								0.10000000149011612,
								-79.30000001192093
							],
							"scale":[
								80,
								80
							]
						}
					},
					"index":4
				}
			}
		}
	],
	"meshes":[
		{
			"name":"terrain_far_01.001",
			"primitives":[
				{
					"attributes":{
						"POSITION":0,
						"NORMAL":1,
						"TEXCOORD_0":2,
						"TEXCOORD_1":3,
						"TANGENT":4
					},
					"indices":5,
					"material":0
				}
			]
		},
		{
			"name":"terrain_near_01.001",
			"primitives":[
				{
					"attributes":{
						"POSITION":6,
						"NORMAL":7,
						"TEXCOORD_0":8,
						"TEXCOORD_1":9,
						"TANGENT":10
					},
					"indices":11,
					"material":1
				},
				{
					"attributes":{
						"POSITION":12,
						"NORMAL":13,
						"TEXCOORD_0":14,
						"TEXCOORD_1":15,
						"TANGENT":16
					},
					"indices":17,
					"material":2
				}
			]
		},
		{
			"name":"Baseplate.001",
			"primitives":[
				{
					"attributes":{
						"POSITION":18,
						"NORMAL":19,
						"TEXCOORD_0":20,
						"TANGENT":21
					},
					"indices":22,
					"material":3
				}
			]
		}
	],
	"textures":[
		{
			"sampler":0,
			"source":0
		},
		{
			"sampler":0,
			"source":1
		},
		{
			"sampler":0,
			"source":2
		},
		{
			"sampler":0,
			"source":3
		},
		{
			"sampler":0,
			"source":4
		}
	],
	"images":[
		{
			"mimeType":"image/jpeg",
			"name":"terrain_far_01_sg",
			"uri":"terrain_far_01_sg.jpg"
		},
		{
			"mimeType":"image/jpeg",
			"name":"terrain_01_n",
			"uri":"terrain_01_n.jpg"
		},
		{
			"mimeType":"image/jpeg",
			"name":"terrain_01_o",
			"uri":"terrain_01_o.jpg"
		},
		{
			"mimeType":"image/jpeg",
			"name":"terrain_far_01_a2",
			"uri":"terrain_far_01_a2.jpg"
		},
		{
			"mimeType":"image/jpeg",
			"name":"terrain_grass_01_a",
			"uri":"terrain_grass_01_a.jpg"
		}
	],
	"accessors":[
		{
			"bufferView":0,
			"componentType":5126,
			"count":7117,
			"max":[
				6.753631254730462e-17,
				110.44135284423828,
				485.7484130859375
			],
			"min":[
				-500.0508117675781,
				-6.596779823303223,
				8.949075035429976e-15
			],
			"type":"VEC3"
		},
		{
			"bufferView":1,
			"componentType":5126,
			"count":7117,
			"type":"VEC3"
		},
		{
			"bufferView":2,
			"componentType":5126,
			"count":7117,
			"type":"VEC2"
		},
		{
			"bufferView":3,
			"componentType":5126,
			"count":7117,
			"type":"VEC2"
		},
		{
			"bufferView":4,
			"componentType":5126,
			"count":7117,
			"type":"VEC4"
		},
		{
			"bufferView":5,
			"componentType":5123,
			"count":41115,
			"type":"SCALAR"
		},
		{
			"bufferView":6,
			"componentType":5126,
			"count":4275,
			"max":[
				-179.1483154296875,
				10.069159507751465,
				474.4975280761719
			],
			"min":[
				-356.3359680175781,
				-2.2278835773468018,
				356.3347473144531
			],
			"type":"VEC3"
		},
		{
			"bufferView":7,
			"componentType":5126,
			"count":4275,
			"type":"VEC3"
		},
		{
			"bufferView":8,
			"componentType":5126,
			"count":4275,
			"type":"VEC2"
		},
		{
			"bufferView":9,
			"componentType":5126,
			"count":4275,
			"type":"VEC2"
		},
		{
			"bufferView":10,
			"componentType":5126,
			"count":4275,
			"type":"VEC4"
		},
		{
			"bufferView":11,
			"componentType":5123,
			"count":24795,
			"type":"SCALAR"
		},
		{
			"bufferView":12,
			"componentType":5126,
			"count":2562,
			"max":[
				-169.30880737304688,
				9.415717124938965,
				419.3348693847656
			],
			"min":[
				-346.4924011230469,
				3.9731338024139404,
				344.5237121582031
			],
			"type":"VEC3"
		},
		{
			"bufferView":13,
			"componentType":5126,
			"count":2562,
			"type":"VEC3"
		},
		{
			"bufferView":14,
			"componentType":5126,
			"count":2562,
			"type":"VEC2"
		},
		{
			"bufferView":15,
			"componentType":5126,
			"count":2562,
			"type":"VEC2"
		},
		{
			"bufferView":16,
			"componentType":5126,
			"count":2562,
			"type":"VEC4"
		},
		{
			"bufferView":17,
			"componentType":5123,
			"count":14625,
			"type":"SCALAR"
		},
		{
			"bufferView":18,
			"componentType":5126,
			"count":121,
			"max":[
				5,
				1.1102230246251565e-16,
				5
			],
			"min":[
				-5,
				-1.1102230246251565e-16,
				-5
			],
			"type":"VEC3"
		},
		{
			"bufferView":19,
			"componentType":5126,
			"count":121,
			"type":"VEC3"
		},
		{
			"bufferView":20,
			"componentType":5126,
			"count":121,
			"type":"VEC2"
		},
		{
			"bufferView":21,
			"componentType":5126,
			"count":121,
			"type":"VEC4"
		},
		{
			"bufferView":22,
			"componentType":5123,
			"count":600,
			"type":"SCALAR"
		}
	],
	"bufferViews":[
		{
			"buffer":0,
			"byteLength":85404,
			"byteOffset":0,
			"target":34962
		},
		{
			"buffer":0,
			"byteLength":85404,
			"byteOffset":85404,
			"target":34962
		},
		{
			"buffer":0,
			"byteLength":56936,
			"byteOffset":170808,
			"target":34962
		},
		{
			"buffer":0,
			"byteLength":56936,
			"byteOffset":227744,
			"target":34962
		},
		{
			"buffer":0,
			"byteLength":113872,
			"byteOffset":284680,
			"target":34962
		},
		{
			"buffer":0,
			"byteLength":82230,
			"byteOffset":398552,
			"target":34963
		},
		{
			"buffer":0,
			"byteLength":51300,
			"byteOffset":480784,
			"target":34962
		},
		{
			"buffer":0,
			"byteLength":51300,
			"byteOffset":532084,
			"target":34962
		},
		{
			"buffer":0,
			"byteLength":34200,
			"byteOffset":583384,
			"target":34962
		},
		{
			"buffer":0,
			"byteLength":34200,
			"byteOffset":617584,
			"target":34962
		},
		{
			"buffer":0,
			"byteLength":68400,
			"byteOffset":651784,
			"target":34962
		},
		{
			"buffer":0,
			"byteLength":49590,
			"byteOffset":720184,
			"target":34963
		},
		{
			"buffer":0,
			"byteLength":30744,
			"byteOffset":769776,
			"target":34962
		},
		{
			"buffer":0,
			"byteLength":30744,
			"byteOffset":800520,
			"target":34962
		},
		{
			"buffer":0,
			"byteLength":20496,
			"byteOffset":831264,
			"target":34962
		},
		{
			"buffer":0,
			"byteLength":20496,
			"byteOffset":851760,
			"target":34962
		},
		{
			"buffer":0,
			"byteLength":40992,
			"byteOffset":872256,
			"target":34962
		},
		{
			"buffer":0,
			"byteLength":29250,
			"byteOffset":913248,
			"target":34963
		},
		{
			"buffer":0,
			"byteLength":1452,
			"byteOffset":942500,
			"target":34962
		},
		{
			"buffer":0,
			"byteLength":1452,
			"byteOffset":943952,
			"target":34962
		},
		{
			"buffer":0,
			"byteLength":968,
			"byteOffset":945404,
			"target":34962
		},
		{
			"buffer":0,
			"byteLength":1936,
			"byteOffset":946372,
			"target":34962
		},
		{
			"buffer":0,
			"byteLength":1200,
			"byteOffset":948308,
			"target":34963
		}
	],
	"samplers":[
		{
			"magFilter":9729,
			"minFilter":9987
		}
	],
	"buffers":[
		{
			"byteLength":949508,
			"uri":"Terrain.bin"
		}
	]
}
