{
	"asset":{
		"generator":"Khronos glTF Blender I/O v4.4.56",
		"version":"2.0"
	},
	"scene":0,
	"scenes":[
		{
			"name":"Scene",
			"nodes":[
				0
			]
		}
	],
	"nodes":[
		{
			"mesh":0,
			"name":"Grid",
			"scale":[
				1.4399266242980957,
				1,
				0.6960719227790833
			],
			"translation":[
				95.57099914550781,
				1.159999966621399,
				212.56263732910156
			]
		}
	],
	"materials":[
		{
			"doubleSided":true,
			"name":"water",
			"pbrMetallicRoughness":{
				"baseColorFactor":[
					0.13179543614387512,
					0.6953993439674377,
					0.800782322883606,
					1
				],
				"metallicFactor":0,
				"roughnessFactor":0.5
			}
		}
	],
	"meshes":[
		{
			"name":"Grid.003",
			"primitives":[
				{
					"attributes":{
						"POSITION":0,
						"NORMAL":1,
						"TEXCOORD_0":2
					},
					"indices":3,
					"material":0
				}
			]
		}
	],
	"accessors":[
		{
			"bufferView":0,
			"componentType":5126,
			"count":122703,
			"max":[
				275,
				0,
				275
			],
			"min":[
				-275,
				0,
				-275
			],
			"type":"VEC3"
		},
		{
			"bufferView":1,
			"componentType":5126,
			"count":122703,
			"type":"VEC3"
		},
		{
			"bufferView":2,
			"componentType":5126,
			"count":122703,
			"type":"VEC2"
		},
		{
			"bufferView":3,
			"componentType":5125,
			"count":720000,
			"type":"SCALAR"
		}
	],
	"bufferViews":[
		{
			"buffer":0,
			"byteLength":1472436,
			"byteOffset":0,
			"target":34962
		},
		{
			"buffer":0,
			"byteLength":1472436,
			"byteOffset":1472436,
			"target":34962
		},
		{
			"buffer":0,
			"byteLength":981624,
			"byteOffset":2944872,
			"target":34962
		},
		{
			"buffer":0,
			"byteLength":2880000,
			"byteOffset":3926496,
			"target":34963
		}
	],
	"buffers":[
		{
			"byteLength":6806496,
			"uri":"Water.bin"
		}
	]
}
